<?xml version="1.0" encoding="utf-8"?>
<!-- Generator: Adobe Illustrator 17.0.0, SVG Export Plug-In . SVG Version: 6.00 Build 0)  -->
<!DOCTYPE svg PUBLIC "-//W3C//DTD SVG 1.1//EN" "http://www.w3.org/Graphics/SVG/1.1/DTD/svg11.dtd">
<svg version="1.1" id="Layer_1" xmlns="http://www.w3.org/2000/svg" xmlns:xlink="http://www.w3.org/1999/xlink" x="0px" y="0px"
	 width="400px" height="400px" viewBox="0 0 400 400" enable-background="new 0 0 400 400" xml:space="preserve">
<rect x="0" y="0" fill="#231F20" width="400" height="400"/>
<rect x="23.483" y="23.483" fill="#BEFFF4" width="353.033" height="353.033"/>
<g>
	<path d="M189.757,280.462L134,202.718h-20.651v77.744H80.916V100.68h32.434v73.492h20.772l51.505-73.492h34.499l-60.98,87.097
		l66.082,92.686H189.757z"/>
	<path d="M231.059,277.304v-23.809c12.876,3.887,26.238,5.831,40.086,5.831c9.394,0,16.257-1.397,20.59-4.191
		c4.331-2.794,6.499-6.863,6.499-12.208c0-4.292-1.135-7.571-3.401-9.839c-2.268-2.267-6.155-3.967-11.661-5.102l-20.165-3.766
		c-12.229-2.43-21.137-6.7-26.725-12.816c-5.588-6.113-8.382-14.313-8.382-24.599c0-8.26,2.166-15.446,6.499-21.562
		c4.332-6.114,10.912-10.872,19.74-14.273c8.826-3.401,19.759-5.102,32.798-5.102c12.227,0,23.523,1.378,33.89,4.13v23.688
		c-10.445-2.834-21.46-4.251-33.04-4.251c-20.003,0-30.004,5.508-30.004,16.521c0,3.887,1.112,6.985,3.341,9.292
		c2.227,2.308,6.013,4.03,11.358,5.163l20.165,3.766c12.147,2.429,21.076,6.581,26.785,12.451
		c5.709,5.873,8.564,14.233,8.564,25.084c0,8.503-2.188,15.833-6.561,21.987c-4.373,6.155-10.791,10.893-19.252,14.213
		c-8.463,3.319-18.688,4.98-30.672,4.98C256.447,282.892,242.963,281.028,231.059,277.304z"/>
</g>
<g>
	<path d="M105.68,338.492l-7.267-10.132h-2.691v10.132h-4.227v-23.43h4.227v9.578h2.708l6.712-9.578h4.496l-7.947,11.351
		l8.612,12.079H105.68z"/>
	<path d="M112.013,338.492v-23.43h4.227v23.43H112.013z"/>
	<path d="M136.281,315.062h3.974v23.43h-4.274l-11.129-17.082v17.082h-3.989v-23.43h4.274l11.145,17.098V315.062z"/>
	<path d="M149.057,335.088h11.747v3.404h-15.926v-23.43h15.768v3.404h-11.588v6.333h10.005v3.404h-10.005V335.088z"/>
	<path d="M166.416,338.54c-1.082-0.168-2.092-0.412-3.032-0.728v-3.467c0.96,0.328,1.998,0.578,3.111,0.752
		c1.113,0.174,2.166,0.261,3.158,0.261c1.657,0,2.871-0.279,3.642-0.839c0.77-0.559,1.155-1.377,1.155-2.454
		c0-0.612-0.119-1.119-0.356-1.52c-0.237-0.401-0.631-0.749-1.18-1.045c-0.549-0.295-1.314-0.57-2.295-0.823l-1.583-0.412
		c-2.069-0.517-3.609-1.314-4.623-2.39c-1.013-1.077-1.52-2.486-1.52-4.227c0-2.185,0.784-3.879,2.351-5.082
		s3.865-1.805,6.895-1.805c0.992,0,1.955,0.061,2.889,0.182c0.934,0.122,1.77,0.293,2.509,0.515v3.467
		c-0.76-0.232-1.589-0.412-2.486-0.538c-0.897-0.127-1.799-0.19-2.707-0.19c-1.826,0-3.156,0.28-3.989,0.839
		c-0.834,0.56-1.251,1.356-1.251,2.391c0,0.581,0.108,1.066,0.325,1.457s0.575,0.728,1.077,1.013
		c0.501,0.285,1.19,0.549,2.066,0.792l1.583,0.396c2.248,0.56,3.897,1.377,4.947,2.454s1.575,2.491,1.575,4.243
		c0,1.457-0.356,2.712-1.068,3.768c-0.712,1.056-1.747,1.86-3.103,2.415c-1.356,0.554-2.974,0.831-4.853,0.831
		C168.577,338.793,167.497,338.709,166.416,338.54z"/>
	<path d="M181.97,338.492v-23.43h4.227v23.43H181.97z"/>
	<path d="M194.895,337.495c-1.578-0.865-2.797-2.195-3.657-3.989c-0.86-1.794-1.291-4.037-1.291-6.728
		c0-2.691,0.43-4.932,1.291-6.721c0.86-1.789,2.082-3.119,3.665-3.989c1.583-0.871,3.456-1.306,5.62-1.306
		c2.174,0,4.05,0.436,5.628,1.306c1.578,0.871,2.796,2.201,3.657,3.989c0.86,1.789,1.29,4.029,1.29,6.721
		c0,2.681-0.433,4.918-1.298,6.712c-0.866,1.794-2.087,3.126-3.665,3.997s-3.449,1.306-5.612,1.306
		C198.349,338.793,196.473,338.36,194.895,337.495z M205.154,333.323c1.071-1.346,1.607-3.496,1.607-6.451
		c0-3.04-0.539-5.243-1.615-6.609c-1.077-1.367-2.618-2.05-4.623-2.05s-3.543,0.67-4.615,2.011s-1.606,3.493-1.606,6.459
		c0,3.05,0.533,5.256,1.599,6.618c1.066,1.361,2.607,2.042,4.623,2.042C202.539,335.342,204.083,334.669,205.154,333.323z"/>
	<path d="M214.866,338.492v-23.43h4.227v19.9h11.05v3.53H214.866z"/>
	<path d="M236.008,337.495c-1.578-0.865-2.797-2.195-3.657-3.989c-0.86-1.794-1.291-4.037-1.291-6.728
		c0-2.691,0.43-4.932,1.291-6.721c0.86-1.789,2.082-3.119,3.665-3.989c1.583-0.871,3.456-1.306,5.62-1.306
		c2.174,0,4.05,0.436,5.628,1.306c1.578,0.871,2.796,2.201,3.657,3.989c0.86,1.789,1.29,4.029,1.29,6.721
		c0,2.681-0.433,4.918-1.298,6.712c-0.866,1.794-2.087,3.126-3.665,3.997s-3.449,1.306-5.612,1.306
		C239.461,338.793,237.585,338.36,236.008,337.495z M246.267,333.323c1.071-1.346,1.607-3.496,1.607-6.451
		c0-3.04-0.539-5.243-1.615-6.609c-1.077-1.367-2.618-2.05-4.623-2.05s-3.543,0.67-4.615,2.011s-1.606,3.493-1.606,6.459
		c0,3.05,0.533,5.256,1.599,6.618c1.066,1.361,2.607,2.042,4.623,2.042C243.652,335.342,245.195,334.669,246.267,333.323z"/>
	<path d="M273.647,327.094v11.145c-1.974,0.327-3.847,0.491-5.62,0.491c-4.327,0-7.56-0.968-9.697-2.905
		c-2.137-1.937-3.211-4.937-3.222-9c0-4.053,1.084-7.077,3.253-9.071s5.306-2.992,9.412-2.992c1.815,0,3.562,0.211,5.24,0.633v3.515
		c-1.604-0.412-3.24-0.618-4.908-0.618c-1.942,0-3.541,0.285-4.797,0.855s-2.201,1.486-2.833,2.747
		c-0.633,1.261-0.95,2.921-0.95,4.979c0,2.913,0.67,5.034,2.011,6.364c1.34,1.33,3.404,1.995,6.19,1.995
		c0.602,0,1.256-0.026,1.963-0.079v-8.058H273.647z"/>
	<path d="M278.095,338.492v-23.43h4.227v23.43H278.095z M278.332,313.163l2.818-4.686h4.385l-3.467,4.686H278.332z"/>
	<path d="M302.633,338.492l-2.201-6.744h-9.15l-2.2,6.744h-4.148l7.884-23.43h6.111l7.885,23.43H302.633z M292.374,328.36h6.95
		l-3.483-10.639L292.374,328.36z"/>
</g>
<g>
	<path d="M92.663,49.615h3.578v31.07h-5.586V56.331l-7.239,5.084v-5.293L92.663,49.615z"/>
</g>
</svg>
