<?xml version="1.0" encoding="utf-8"?>
<!-- Generator: Adobe Illustrator 22.1.0, SVG Export Plug-In . SVG Version: 6.00 Build 0)  -->
<svg version="1.1" id="Layer_1" xmlns="http://www.w3.org/2000/svg" xmlns:xlink="http://www.w3.org/1999/xlink" x="0px" y="0px"
	 viewBox="0 0 1116 350" style="enable-background:new 0 0 1116 350;" xml:space="preserve">
<style type="text/css">
	.st0{fill:#494949;}
	.st1{fill:url(#SVGID_1_);}
	.st2{opacity:0.48;}
	.st3{fill:url(#SVGID_2_);}
	.st4{fill:#DCF0F9;}
</style>
<g>
	<g>
		<path class="st0" d="M336.7,120.6v50.4h60.2v9.1h-60.2v59.4h-10.9V111.5h76.9v9.1H336.7z"/>
		<path class="st0" d="M529.4,181.5c0,35.7-11.5,60.5-51.1,60.5c-39.2,0-51.1-24.1-51.1-60.5v-69.9h10.9v69.1
			c0,33.2,9.6,51.4,40.2,51.4c30.9,0,40.2-18.8,40.2-51.4v-69.1h10.9V181.5z"/>
		<path class="st0" d="M612.5,111.5c25.7,0,40.6,16.4,40.6,39.9c0,21-11.4,35.9-31.8,39l36.4,49.2h-12.9l-34.8-48.1h-39.4v48.1
			h-10.9V111.5H612.5z M570.7,182.5h40.8c19.7,0,30.8-12,30.8-31.1c0-18.8-11.3-31-30.8-31h-40.8V182.5z"/>
		<path class="st0" d="M798.8,239.6v-107l-47.5,107h-10.5l-47.5-107v107h-10.9V111.5h13.5L746,227.1l50.2-115.6h13.5v128.1H798.8z"
			/>
		<path class="st0" d="M938.5,239.6L924,204.2h-66.2l-14.5,35.4h-11.4l53.3-128.1h11.6l53.3,128.1H938.5z M920.5,195.1l-29.7-71.9
			l-29.7,71.9H920.5z"/>
		<path class="st0" d="M1057.8,239.6l-76.6-109.9v109.9h-10.9V111.5h13.2l76.6,110v-110h10.9v128.1H1057.8z"/>
	</g>
</g>
<g>
	<g>
		<linearGradient id="SVGID_1_" gradientUnits="userSpaceOnUse" x1="154.0044" y1="18.9904" x2="154.0044" y2="321.8859">
			<stop  offset="0" style="stop-color:#9FDBF4"/>
			<stop  offset="0.5606" style="stop-color:#51BDEB"/>
			<stop  offset="1" style="stop-color:#0C6393"/>
		</linearGradient>
		<path class="st1" d="M139.9,26.9c-2.2,0-4-1.8-4-4s1.8-4,4-4c2.2,0,4,1.8,4,4S142.1,26.9,139.9,26.9z M167.4,44.5
			c0-3.8-3.1-6.8-6.8-6.8s-6.8,3.1-6.8,6.8c0,3.8,3.1,6.8,6.8,6.8S167.4,48.3,167.4,44.5z M183.4,71c0-5-4-9-9-9c-5,0-9,4-9,9
			c0,5,4,9,9,9C179.3,80,183.4,76,183.4,71z M189.3,100.5c0-5.8-4.7-10.6-10.6-10.6c-5.8,0-10.6,4.7-10.6,10.6
			c0,5.8,4.7,10.6,10.6,10.6C184.6,111.1,189.3,106.4,189.3,100.5z M185.8,130.1c0-6.4-5.2-11.6-11.6-11.6
			c-6.4,0-11.6,5.2-11.6,11.6c0,6.4,5.2,11.6,11.6,11.6C180.6,141.7,185.8,136.5,185.8,130.1z M175.3,157.9
			c0-6.7-5.4-12.1-12.1-12.1c-6.7,0-12.1,5.4-12.1,12.1c0,6.7,5.4,12.1,12.1,12.1C169.8,170,175.3,164.6,175.3,157.9z M160.3,183.8
			c0-6.7-5.4-12.2-12.2-12.2c-6.7,0-12.2,5.4-12.2,12.2c0,6.7,5.4,12.2,12.2,12.2C154.9,196,160.3,190.6,160.3,183.8z M145.7,210.4
			c0-6.2-5.1-11.3-11.3-11.3c-6.2,0-11.3,5.1-11.3,11.3c0,6.2,5.1,11.3,11.3,11.3C140.6,221.7,145.7,216.6,145.7,210.4z
			 M137.6,239.6c0-5.2-4.2-9.4-9.4-9.4c-5.2,0-9.4,4.2-9.4,9.4c0,5.2,4.2,9.4,9.4,9.4C133.4,249,137.6,244.8,137.6,239.6z
			 M139.2,269.3c0-4.2-3.4-7.7-7.7-7.7s-7.7,3.4-7.7,7.7c0,4.2,3.4,7.7,7.7,7.7S139.2,273.5,139.2,269.3z M146.6,297.6
			c0-3-2.4-5.4-5.4-5.4s-5.4,2.4-5.4,5.4c0,3,2.4,5.4,5.4,5.4S146.6,300.6,146.6,297.6z M156.3,318.6c0-1.8-1.5-3.3-3.3-3.3
			s-3.3,1.5-3.3,3.3c0,1.8,1.5,3.3,3.3,3.3S156.3,320.4,156.3,318.6z"/>
		<g class="st2">
			<linearGradient id="SVGID_2_" gradientUnits="userSpaceOnUse" x1="215.1911" y1="50.2853" x2="215.1911" y2="298.0345">
				<stop  offset="0" style="stop-color:#9FDBF4"/>
				<stop  offset="0.5606" style="stop-color:#51BDEB"/>
				<stop  offset="1" style="stop-color:#0C6393"/>
			</linearGradient>
			<path class="st3" d="M281,172.6c0-59.5-41.3-109.3-96.8-122.3c2.9,2.1,5.7,4.7,8.7,7.6c1.9,1.7,3.3,3.8,5,5.9
				c1.6,2.1,3.4,4.3,4.6,6.8c1.4,2.4,2.7,5,4,7.7c1.1,2.7,2,5.5,3,8.4c3.4,11.5,4.3,24.1,3.2,36.1c-1.2,12-4.3,23.4-8.5,34.1
				c-1,2.6-2.1,5.4-3.3,7.9l-1.8,3.8l-0.9,1.9l-0.5,0.9l-0.2,0.5l-0.4,0.7l-1.7,3.2c-0.5,1-1.1,2.1-1.8,3.3l-3.9,6.7
				c-5,8.4-10.1,16-14.4,22.7c-4.4,6.8-8.3,12.8-11.5,18.3c-0.8,1.4-1.5,2.7-2.3,4.1c-0.6,1.3-1.4,2.6-2.1,4
				c-0.6,1.3-1.2,2.6-1.8,3.9l-0.8,1.9l-0.4,1l-0.1,0.2c0,0.6,0-0.8,0-0.6l0,0.1l0,0.2l-0.2,0.8c-0.3,1-0.5,2-0.8,3
				c-0.2,0.9-0.4,1.2-0.7,1.9c-0.5,1-0.8,2.7-1.3,4.1c-0.7,3-1.4,5.9-1.9,8.9c-1,6-1.5,11.9-1.7,17.4c-0.1,3.3,0,6.4,0.1,9.4
				c12-4.3,64.6-25.7,88.5-80.5c0,0-7.9,57.2-75.1,91.3C228.8,294.1,281,239.4,281,172.6z"/>
		</g>
		<g>
			<path class="st4" d="M154.9,71.7c-0.3-1.3-0.7-2.6-1-3.9c-0.3-1.3-1-2.5-1.4-3.7c-1-2.4-1.9-5-3-7.1c-0.2-0.4-0.4-0.8-0.6-1.3
				c-19.8,8.8-59.4,31.2-79.2,76.7c0,0,6.8-48.6,60.3-82.9C72.8,61.2,29.6,111.8,29.6,172.6c0,60.9,43.3,111.7,100.8,123.2
				c-2.3-1.9-4.6-4-7-6.5c-4.9-5.1-9.8-11.6-13.9-19.7c-2.1-4-3.9-8.4-5.5-13.1c-0.8-2.4-1.5-4.7-2.1-7.6c-0.3-1.4-0.6-2.7-0.9-4.1
				c-0.2-1-0.5-2-0.7-3.1l-0.2-0.8l0-0.2l0-0.1c0,0.1,0-1.4,0-0.8l-0.1-0.5l-0.2-2.1c-0.1-1.4-0.2-2.9-0.4-4.3
				c-0.2-2.9-0.1-5.8-0.1-8.7c0.1-2.9,0.4-5.8,0.7-8.8c0.4-2.9,0.8-5.8,1.4-8.7c2.3-11.5,6.2-22.3,10.7-32.1
				c4.5-9.8,9.5-18.5,14.2-26.5c2.3-3.8,4.7-7.7,7-11.5l1.3-2.3l1.5-2.5c1.1-1.6,1.8-3.3,2.9-4.9c3.7-6.4,7-12.4,9.6-18
				c2.5-5.5,4.4-10.4,5.8-15.1c1.5-4.8,1.8-9.4,1.6-14.6C155.8,76.9,155.8,74.2,154.9,71.7z"/>
		</g>
	</g>
</g>
</svg>
